<svg xmlns="http://www.w3.org/2000/svg" viewBox="0 0 751 266.87"><defs><style>.cls-1{fill:none;stroke:#afafaf;stroke-miterlimit:10;stroke-width:6px;}.cls-2{fill:#afafaf;}.cls-3{fill:#3fa0ec;}.cls-4{font-size:18px;}.cls-4,.cls-5,.cls-6{fill:#fff;font-family:MicrosoftYaHeiUI, Microsoft YaHei UI;}.cls-5,.cls-6{font-size:18.04px;}.cls-5{letter-spacing:-0.02em;}</style></defs><title>OJ103514635</title><g id="Shapes"><line class="cls-1" x1="102" y1="152" x2="132.24" y2="152"/><polygon class="cls-2" points="130.05 159.48 143 152 130.05 144.52 130.05 159.48"/><line class="cls-1" x1="105" y1="56.86" x2="132.24" y2="56.86"/><polygon class="cls-2" points="130.05 64.34 143 56.86 130.05 49.38 130.05 64.34"/><line class="cls-1" x1="596" y1="104.87" x2="626.23" y2="104.88"/><polygon class="cls-2" points="624.04 112.35 637 104.88 624.05 97.39 624.04 112.35"/><line class="cls-1" x1="446" y1="169.82" x2="626.24" y2="169.22"/><polygon class="cls-2" points="624.07 176.71 637 169.19 624.02 161.75 624.07 176.71"/><line class="cls-1" x1="451" y1="134.18" x2="477.22" y2="134.18"/><polygon class="cls-2" points="475.03 141.66 487.99 134.18 475.03 126.7 475.03 141.66"/><line class="cls-1" x1="446" y1="39.05" x2="626.24" y2="39.64"/><polygon class="cls-2" points="624.02 47.11 637 39.68 624.07 32.15 624.02 47.11"/><line class="cls-1" x1="451" y1="74.68" x2="477.22" y2="74.68"/><polygon class="cls-2" points="475.03 82.16 487.99 74.68 475.03 67.2 475.03 82.16"/><rect class="cls-3" x="142.5" y="118.64" width="182" height="67" rx="8" ry="8"/><rect class="cls-3" x="328.5" y="118.36" width="123" height="67" rx="8" ry="8"/><rect class="cls-3" x="328.5" y="23.36" width="123" height="67" rx="8" ry="8"/><rect class="cls-3" x="142.5" y="23.36" width="182" height="67" rx="8" ry="8"/><rect class="cls-3" x="637" width="114" height="209" rx="8" ry="8"/><rect class="cls-3" x="0.25" width="105" height="209" rx="8" ry="8"/><rect class="cls-3" y="217.87" width="751" height="49" rx="8" ry="8"/><rect class="cls-3" x="488.75" y="52.5" width="114" height="104" rx="8" ry="8"/></g><g id="txt"><text class="cls-4" transform="translate(339.46 246.32)">业务流程</text><text class="cls-5" transform="translate(492.86 108.99)">分析数据存储</text><text class="cls-6" transform="translate(651.98 110.29)">分析和报告</text><text class="cls-4" transform="translate(364 61.31)">批处理</text><text class="cls-4" transform="translate(364.8 156.62)">流处理</text><text class="cls-4" transform="translate(179.5 157)">实时消息引入</text><text class="cls-4" transform="translate(198.75 60.81)">数据存储</text><text class="cls-4" transform="translate(26.75 108.95)">数据源</text></g></svg>